<svg width="69" height="25" viewBox="0 0 69 25" fill="none" xmlns="http://www.w3.org/2000/svg">
<g clip-path="url(#clip0)">
<path d="M0.00012207 25H68.7481V0H0.00012207V25Z" fill="white"/>
<path d="M20.1652 17.9119C20.1179 17.8647 20.3071 17.9119 20.3543 17.8174H19.9761C19.9288 17.8174 19.9288 17.7701 19.9288 17.7218C19.6923 17.7701 19.4096 17.8647 19.1732 17.9119C18.8422 18.0065 18.5595 18.2429 18.1812 18.3375C17.6601 18.5256 17.2365 18.9512 16.6691 19.1404C16.6218 19.1404 16.6218 19.092 16.6218 19.0458C16.6691 18.9039 16.8582 18.8566 16.9528 18.7148C16.9528 18.6675 16.9528 18.6192 16.9055 18.6192C17.2838 18.1011 17.8029 17.8174 18.2758 17.3918V17.2499C18.4177 17.0618 18.6531 16.9672 18.7476 16.7308C18.7949 16.589 18.9841 16.4008 19.2205 16.3063C19.1732 16.2579 19.0786 16.2579 19.0786 16.1644C18.8895 16.1644 18.7004 16.2579 18.5112 16.1171C18.5996 16.0287 18.7014 15.9804 18.8083 15.9485C18.7672 15.9403 18.7312 15.9208 18.7004 15.8797C18.6531 15.7861 18.7918 15.6802 18.9368 15.6443C19.1259 15.597 19.3624 15.597 19.5042 15.4541C19.1732 15.4068 18.7949 15.5497 18.4639 15.3605C18.7004 14.7468 19.0786 14.2277 19.6461 13.944C19.6923 13.944 19.7869 13.944 19.7869 13.9913C19.7869 14.2277 19.6461 14.4158 19.4096 14.4631C19.7869 14.5567 20.1652 14.5567 20.5435 14.7468C20.4962 14.8414 20.4016 14.7941 20.3543 14.7941C20.5908 14.935 20.8735 14.8414 21.1099 15.0295C20.968 15.1714 20.8262 15.0295 20.6843 15.0295C22.1492 15.4541 23.7086 15.7861 24.937 16.7308C23.8977 17.2499 22.8112 17.4864 21.6773 17.7218C21.5355 17.7218 21.4409 17.7218 21.299 17.6755C21.299 17.7218 21.299 17.8174 21.2518 17.8174C21.0626 17.8174 20.9207 17.8174 20.7799 17.9119C20.5908 18.0065 20.3071 18.0538 20.1652 17.9119ZM19.1979 21.1983C19.1938 21.2004 19.1897 21.2035 19.1856 21.2066C19.0087 21.3309 18.833 21.4584 18.6469 21.5663C18.4444 21.6835 18.2337 21.773 18.0229 21.8727C18.0219 21.8686 18.0198 21.8644 18.0178 21.8603C18.0013 21.8387 17.9684 21.8244 17.9376 21.8418C17.7587 21.9385 17.6066 22.0659 17.4617 22.2037C17.4401 22.2242 17.4185 22.2458 17.3969 22.2674C17.3948 22.2684 17.3938 22.2695 17.3928 22.2705C17.3907 22.2715 17.3897 22.2736 17.3887 22.2746C17.3661 22.2972 17.3445 22.3188 17.3219 22.3414C17.3177 22.3445 17.3167 22.3466 17.3136 22.3496C17.3126 22.3507 17.3126 22.3517 17.3106 22.3538C17.2777 22.3866 17.2448 22.4206 17.2078 22.4637C17.1841 22.4915 17.1769 22.509 17.1451 22.5306C17.1152 22.5501 17.0351 22.5491 17.0423 22.4946V22.4853C17.0145 22.5008 16.9867 22.5151 16.959 22.5285C16.9312 22.5408 16.9086 22.5552 16.885 22.5696C16.8747 22.5645 16.8634 22.5635 16.8521 22.5645C16.8397 22.5645 16.8284 22.5676 16.8182 22.5758C16.7596 22.621 16.703 22.6693 16.6475 22.7197C16.5478 22.8091 16.4563 22.9068 16.3731 23.0106C16.372 23.0127 16.371 23.0137 16.3689 23.0158L16.3597 23.0281C16.3545 23.0343 16.3504 23.0404 16.3453 23.0466C16.3412 23.0528 16.336 23.06 16.3309 23.0661C16.3288 23.0682 16.3278 23.0702 16.3268 23.0723C16.3155 23.0877 16.3052 23.1031 16.2939 23.1196L16.2908 23.1216C16.2846 23.1309 16.2713 23.1371 16.2538 23.1401C16.2466 23.1309 16.2404 23.1216 16.2343 23.1124C16.2302 23.1052 16.225 23.097 16.2209 23.0898C16.2076 23.0651 16.1932 23.0394 16.1808 23.0137L16.1798 23.0106C16.1757 23.0034 16.1726 22.9952 16.1685 22.987C16.2199 22.9325 16.2682 22.876 16.3165 22.8174C16.3196 22.8133 16.3237 22.8102 16.3268 22.8061C16.3422 22.7855 16.3587 22.766 16.3741 22.7454C16.4018 22.7115 16.4286 22.6776 16.4543 22.6447C16.4645 22.6313 16.4738 22.619 16.482 22.6066C16.5355 22.5388 16.5848 22.473 16.6311 22.4072C16.6311 22.4052 16.6321 22.4041 16.6331 22.4021C16.6413 22.3928 16.6485 22.3825 16.6537 22.3723C16.6763 22.3394 16.6999 22.3054 16.7184 22.2705C16.738 22.2397 16.7555 22.2088 16.7719 22.1769C16.7729 22.1739 16.774 22.1718 16.775 22.1698C16.777 22.1667 16.7791 22.1626 16.7801 22.1595C16.7822 22.1543 16.7853 22.1482 16.7873 22.142C16.8038 22.107 16.8192 22.07 16.8325 22.032C16.8346 22.0279 16.8356 22.0238 16.8367 22.0197C16.8408 22.0094 16.8439 21.9991 16.8469 21.9888C16.8531 21.9724 16.8582 21.9539 16.8624 21.9364C16.8634 21.9333 16.8644 21.9292 16.8654 21.9251C16.8706 21.9025 16.8768 21.8799 16.8819 21.8562C16.8839 21.8429 16.8809 21.8336 16.8757 21.8244C16.9271 21.7349 16.9909 21.6496 17.0628 21.5694C17.0556 21.5735 17.0484 21.5766 17.0412 21.5818C16.9734 21.6249 16.9292 21.6856 16.8665 21.7329C16.8151 21.7709 16.7184 21.7072 16.7801 21.6619C16.8223 21.6311 16.8541 21.5972 16.8881 21.5643C16.8891 21.5622 16.8901 21.5591 16.8932 21.5571C16.9713 21.48 17.0453 21.3823 17.1337 21.3176C17.1882 21.2775 17.2355 21.2446 17.2797 21.2066C17.2869 21.2004 17.2931 21.1942 17.3003 21.187C17.3332 21.1438 17.3691 21.1048 17.4062 21.0678C17.4082 21.0667 17.4092 21.0647 17.4113 21.0637C17.8626 20.6268 18.6243 20.6463 19.2205 20.3688C19.4569 20.2742 19.7396 20.416 19.9761 20.3688C20.1179 20.3688 20.2598 20.3688 20.4016 20.4623C19.9771 20.6946 19.5844 20.9547 19.1979 21.1983ZM20.0449 21.5879C20.0223 21.6404 19.975 21.6846 19.9277 21.7267C19.9874 21.738 20.0285 21.7647 19.9904 21.7997C19.8805 21.9004 19.7766 22.0012 19.6317 22.0495C19.6224 22.0526 19.5937 22.0567 19.5597 22.0587C19.5011 22.1153 19.4436 22.1708 19.3829 22.2242C19.3274 22.2736 19.0673 22.2376 19.1465 22.1677C19.2668 22.0618 19.3778 21.9457 19.496 21.8377C19.5628 21.7771 19.6337 21.7185 19.6923 21.6496C19.7252 21.6116 19.753 21.5746 19.7941 21.5447C19.8332 21.518 20.083 21.4954 20.0449 21.5879ZM17.8502 14.5094C17.8029 14.605 17.7505 14.6153 17.7084 14.6996C17.6601 14.7941 17.6138 14.8414 17.5192 14.8887C17.473 14.8887 17.4236 14.8887 17.4236 14.8414C17.473 14.6523 17.6138 14.4631 17.8029 14.4158C17.8502 14.4158 17.8502 14.4631 17.8502 14.5094ZM13.9296 17.6282C13.9296 17.6282 13.8823 17.5809 13.8823 17.5336C14.496 16.7308 14.9689 15.9753 15.3924 15.1251C16.0081 14.7941 16.518 14.312 17.0001 13.8022C17.8029 12.952 18.6531 12.1954 19.6461 11.7236C20.0233 11.5818 20.4962 11.629 20.8735 11.7709C20.7316 11.96 20.4962 11.9117 20.3071 12.0546C20.2598 12.0546 20.2125 12.0546 20.1652 12.0063C20.2125 11.96 20.2125 11.9117 20.2125 11.8655C19.7396 12.3846 19.0786 12.621 18.7004 13.2347C18.4177 13.7076 18.2285 14.3213 17.6138 14.4631C17.4236 14.5094 17.6601 14.3213 17.5665 14.3686C16.1027 15.266 15.0634 16.3515 13.9296 17.6282ZM21.1572 18.6675C21.0626 18.6675 20.8735 18.7148 20.9207 18.6192C20.968 18.3838 21.299 18.3838 21.4882 18.2902C21.5828 18.2429 21.7236 18.1473 21.8182 18.1946C21.9127 18.3375 22.0546 18.2902 22.1492 18.3838C21.8654 18.6675 21.4882 18.5256 21.1572 18.6675ZM28.4218 22.0515C28.6901 21.7832 28.9615 21.4954 29.2308 21.2066H29.2246C29.7263 20.6381 30.2187 20.0964 30.8005 19.5988C30.9773 19.4395 31.15 19.2997 31.3145 19.1876C31.3617 19.1404 31.3617 19.0458 31.408 18.9985C31.1726 19.092 31.0307 19.2822 30.7943 19.3768C30.747 19.3768 30.6997 19.3295 30.747 19.2822C30.9156 19.1558 31.0832 19.0293 31.2518 18.9029C31.2415 18.9039 31.2302 18.9039 31.2199 18.9039C31.1726 18.9039 31.1726 18.8566 31.1726 18.8093C30.5579 18.7148 30.086 19.1403 29.6605 19.5176C29.5659 19.5639 29.4713 19.4703 29.4251 19.4703C28.7158 19.7068 28.1967 20.3215 27.4874 20.6052V20.5106C27.2036 20.6052 26.9292 20.7758 26.6372 20.8406C26.2117 20.9341 25.8344 20.8879 25.4561 20.8879C24.8835 20.9454 24.311 21.0719 23.7384 21.1942L23.689 21.2066C23.3817 21.2898 23.0918 21.4049 22.8091 21.5602C22.7978 21.5674 22.7865 21.5735 22.7762 21.5797C22.7526 21.6085 22.73 21.6373 22.7084 21.6609C22.6066 21.773 22.5192 21.8747 22.3846 21.9436C22.0937 22.0916 21.8572 22.3486 21.6002 22.5573C21.5828 22.5727 21.554 22.5799 21.5252 22.582C21.2713 22.8246 21.0215 23.0713 20.7645 23.3098C20.746 23.3272 20.673 23.3365 20.6196 23.3272C20.6216 23.3262 20.6226 23.3252 20.6237 23.3231C20.6329 23.3077 20.6422 23.2933 20.6514 23.2779C20.6915 23.2111 20.7316 23.1453 20.7727 23.0785C20.818 23.0045 20.8652 22.9315 20.9125 22.8595C20.9773 22.7619 21.0431 22.6652 21.113 22.5717C21.1315 22.547 21.1274 22.5254 21.1119 22.51C21.0965 22.4936 21.0719 22.4843 21.0462 22.4853C21.2826 22.2561 21.5622 22.0618 21.8397 21.8932V21.885C21.8079 21.8963 21.7616 21.8706 21.7863 21.8377C21.8161 21.7956 21.8397 21.7514 21.8675 21.7092C21.8726 21.6948 21.8778 21.6815 21.8829 21.6671C21.8706 21.6547 21.8582 21.6424 21.8469 21.629C21.7709 21.6794 21.6897 21.7267 21.6249 21.7853C21.5118 21.886 21.4234 22.0947 21.2518 22.0927C21.2404 22.0927 21.2075 22.0906 21.1798 22.0824C21.1592 22.0793 21.1418 22.0731 21.1305 22.0659C21.1325 22.0618 21.1346 22.0587 21.1366 22.0546L21.1438 22.0413C21.1459 22.0382 21.1479 22.0341 21.15 22.0299C21.1582 22.0166 21.1654 22.0022 21.1726 21.9888C21.1808 21.9755 21.188 21.9621 21.1952 21.9487C21.2014 21.9374 21.2076 21.9261 21.2137 21.9158C21.225 21.8953 21.2353 21.8758 21.2466 21.8552C21.2548 21.8408 21.2641 21.8274 21.2713 21.813C21.2918 21.7781 21.3124 21.7431 21.333 21.7092C21.3422 21.6917 21.3515 21.6753 21.3617 21.6589C21.3792 21.6301 21.3946 21.6013 21.4121 21.5725C21.4358 21.5334 21.4111 21.5016 21.3761 21.4882C21.4645 21.3751 21.5714 21.2795 21.6999 21.2066H21.6866C21.8665 21.1151 22.0474 21.0051 22.2283 20.9033C22.255 20.8807 22.2797 20.8581 22.3064 20.8355C22.0371 20.9259 21.7945 21.0482 21.555 21.2066C21.555 21.2066 21.4933 21.2322 21.4748 21.2497C21.4748 21.2497 21.4214 21.2693 21.3576 21.2066C21.3515 21.1973 21.3463 21.187 21.3463 21.1716C21.3936 21.077 21.5355 21.0297 21.63 20.9341C21.6773 20.9341 21.7236 20.9341 21.7236 20.9825C23.2357 19.8013 25.3143 20.085 27.0628 19.4703C27.2036 19.3768 27.3455 19.2822 27.4874 19.1876C27.7238 19.092 27.9129 18.8566 28.1967 18.7148C28.5739 18.4311 28.8576 18.1011 28.9995 17.6282C28.9995 17.5809 28.9522 17.5336 28.9522 17.5336C28.3385 18.1946 27.6292 18.7148 26.8737 19.092C25.8817 19.6122 24.7951 19.5176 23.7559 19.6595C23.8032 19.5639 23.8977 19.5639 23.9913 19.5639C23.9913 19.4241 24.0858 19.3768 24.1804 19.2822H24.3223C24.3696 19.2822 24.3696 19.1876 24.4168 19.1876C24.5114 19.1876 24.6533 19.1404 24.606 19.1404C24.4641 18.9512 24.1804 19.2822 23.944 19.1404C24.0386 19.0458 23.9913 18.9039 24.0858 18.8566H24.275C24.275 18.7621 24.3696 18.6675 24.3696 18.6675C25.0778 18.2429 25.7398 17.9119 26.4008 17.5336C26.2589 17.5336 26.1644 17.6755 26.0235 17.5809C26.1171 17.5809 26.0235 17.4391 26.1171 17.4391C26.6372 17.2972 27.0628 17.0145 27.5819 16.8254C27.3928 16.8254 27.2509 16.9672 27.0628 16.8254C27.1574 16.7771 27.2036 16.6835 27.3455 16.6835V16.5417C27.3455 16.4944 27.3928 16.4944 27.4401 16.4944C27.3928 16.4944 27.3455 16.4471 27.3455 16.4471C27.3928 16.3515 27.5346 16.4008 27.6292 16.3063C27.5819 16.3063 27.4874 16.3063 27.4874 16.2579C27.6292 16.0698 27.8657 16.0225 28.1021 15.9753C28.0538 15.8797 27.9129 15.9753 27.9129 15.8797C27.9129 15.8334 27.9602 15.8334 28.0075 15.8334H27.9129C27.8184 15.7861 27.8657 15.6915 27.8657 15.6443C28.1494 15.3143 28.1494 14.8887 28.2902 14.5094C28.2429 14.5094 28.1967 14.5094 28.1967 14.4631C27.7238 14.9823 26.9682 15.1714 26.2589 15.3605H26.0235C25.7871 15.4541 25.4561 15.4541 25.2197 15.3143C25.0305 15.2197 24.937 15.0778 24.7478 14.935C24.3696 14.6996 23.9913 14.5094 23.5667 14.3686C22.3856 13.9913 21.1572 13.8022 19.9288 13.8494C20.4489 13.5647 21.0215 13.5421 21.5828 13.3766C22.3856 13.1412 23.1411 12.8575 23.9913 12.9047C23.8504 12.8575 23.6613 12.9047 23.5194 12.9047C22.8574 12.8575 22.1964 13.0466 21.4882 13.1874C21.0153 13.282 20.5908 13.4711 20.1179 13.5647C19.8342 13.6593 19.6923 13.944 19.3624 13.8967V13.7549C19.8342 13.1874 20.4016 12.621 21.1572 12.5737C22.0073 12.4319 22.8112 12.5737 23.6613 12.6683C24.275 12.7156 24.8424 12.8575 25.4561 12.9983C25.6925 12.9983 25.7398 13.3766 25.929 13.4239C26.2117 13.5184 26.4954 13.4239 26.7791 13.612C26.7791 13.5184 26.7318 13.4239 26.7791 13.3293C26.9682 13.1412 27.2036 13.3766 27.3928 13.282C27.7711 13.0466 27.0628 12.621 26.8737 12.29C26.8737 12.2427 26.921 12.1954 26.921 12.1954C27.2982 12.5265 27.5819 12.9047 28.0538 13.1412C28.2902 13.2347 28.8576 13.3766 28.7631 13.0929C28.5266 12.5737 28.0538 12.1482 27.6765 11.6763V11.4872C27.5819 11.4872 27.5819 11.4399 27.5346 11.3926V11.2035C27.3455 11.1089 27.3928 10.9198 27.2982 10.7789C27.1574 10.5425 27.2509 10.2115 27.1574 9.92674C27.0628 9.64508 27.0155 9.40865 26.9682 9.12493C26.8264 8.32106 26.6372 7.6128 26.5427 6.85725C26.4481 5.95984 27.0628 5.25158 27.4874 4.44668C27.8184 3.8813 28.1967 3.31387 28.8103 2.93661C28.9522 2.36815 29.3305 1.89631 29.7078 1.42345C30.085 0.963951 30.7121 0.683317 31.1664 0.479782C31.8264 0.183729 32.4216 0.000753403 32.4216 0.000753403H-0.000305176V24.9997H22.9602C23.8597 24.3531 24.7581 24.0447 26.0133 23.4269C26.6064 23.134 27.9623 22.511 28.4218 22.0515Z" fill="#000091"/>
<path d="M68.7499 0H41.8575C41.8575 0 41.9078 0.00822258 42.1134 0.118216C42.3313 0.235403 42.613 0.386513 42.7898 0.479029C43.1383 0.660978 43.4744 0.888157 43.6913 1.23561C43.7869 1.37644 43.9288 1.66016 43.8342 1.8493C43.7396 2.08573 43.6913 2.46299 43.4559 2.55859C43.1712 2.69942 42.795 2.69942 42.4639 2.65214C42.2738 2.65214 42.0857 2.60485 41.8965 2.55859C42.6048 2.84128 43.2668 3.17229 43.7396 3.83327C43.7869 3.92784 43.974 3.97512 44.1642 3.97512C44.2115 3.97512 44.2115 4.0697 44.2115 4.11698C44.1159 4.21156 44.0213 4.25884 44.0686 4.4007H44.2115C44.4469 4.30613 44.4006 3.83327 44.7316 3.97512C44.967 4.11698 45.0606 4.44798 44.9197 4.68339C44.7316 4.87253 44.5415 5.01439 44.3533 5.15625C44.3061 5.25082 44.3061 5.39268 44.3533 5.48725C44.4942 5.6764 44.5415 5.86452 44.5887 6.05366C44.7316 6.38466 44.7789 6.76295 44.9197 7.09293C45.1099 7.80222 45.298 8.51049 45.2507 9.21875C45.2507 9.59704 45.0606 9.92701 45.2035 10.3053C45.298 10.6846 45.5345 10.9673 45.7236 11.2973C45.9117 11.582 46.1009 11.7701 46.2417 12.0549C46.5264 12.5267 47.0466 12.9996 46.8091 13.565C46.6683 13.897 46.1482 13.8497 45.8172 14.0378C45.5345 14.2743 45.7709 14.6515 45.9117 14.888C46.1482 15.3135 45.629 15.5972 45.298 15.7391C45.3916 15.8799 45.5817 15.8326 45.629 15.9272C45.6763 16.1647 45.9117 16.3055 45.7709 16.5419C45.5817 16.8246 45.0133 16.9675 45.298 17.3921C45.4861 17.722 45.3648 18.0911 45.2507 18.4324C45.1099 18.8569 44.7316 19.045 44.4006 19.1396C44.1159 19.2352 43.7869 19.2352 43.5022 19.1869C43.4086 19.1396 43.3141 19.0923 43.2185 19.0923C42.4167 18.9977 41.6138 18.7623 40.8089 18.7623C40.5746 18.8096 40.3371 18.8569 40.149 18.9515C39.9352 19.1088 39.745 19.2784 39.5764 19.4572L39.5702 19.4634C39.5353 19.5014 39.5024 19.5395 39.4685 19.5775C39.4469 19.6012 39.4274 19.6258 39.4068 19.6495C39.3934 19.6669 39.3811 19.6813 39.3667 19.6978C39.229 19.8705 39.1046 20.0545 38.9956 20.2426C38.9884 20.2549 38.9802 20.2673 38.974 20.2796C38.9607 20.3012 38.9504 20.3238 38.937 20.3444C38.7828 20.6322 38.6646 20.9252 38.5793 21.213C38.2596 22.2934 38.4004 23.2227 38.6235 23.4478C38.6882 23.5105 40.1839 23.972 41.2263 24.4356C41.7146 24.6525 42.0569 24.8211 42.3416 25H68.7499V0Z" fill="#E1000F"/>
<path d="M43.4564 9.12068C43.6466 9.16796 43.9282 9.16796 43.9282 9.26254C43.8347 9.6398 43.2673 9.73437 42.9836 10.1127H42.8417C42.7009 10.2072 42.7492 10.4437 42.6063 10.4437C42.4644 10.3964 42.3226 10.4437 42.1807 10.4909C42.3699 10.6791 42.6063 10.822 42.889 10.7736C42.9373 10.7736 43.0308 10.8682 43.0308 10.9628C43.0308 10.9628 43.0781 10.9628 43.1254 10.9155C43.1727 10.9155 43.221 10.9155 43.221 10.9628V11.1519C43.0781 11.3411 42.8417 11.2465 42.6525 11.2938C43.0308 11.3884 43.4091 11.3884 43.7391 11.2938C44.0228 11.1992 43.7391 10.7264 43.9282 10.4909C43.8347 10.4909 43.9282 10.3491 43.8347 10.3491C43.9282 10.2545 44.0228 10.1127 44.1184 10.0654C44.212 10.0654 44.3538 10.0181 44.4011 9.92351C44.4011 9.82894 44.212 9.78166 44.2593 9.68708C44.543 9.49897 44.7794 9.21525 44.6848 8.93153C44.6375 8.78967 44.2593 8.78967 44.0228 8.6951C43.7874 8.60156 43.5037 8.6951 43.221 8.74239C42.9836 8.74239 42.7492 8.88425 42.5117 8.93153C42.1807 9.02611 41.897 9.21525 41.6133 9.40439C41.9443 9.26254 42.2753 9.21525 42.6525 9.12068C42.9373 9.12068 43.1778 9.05078 43.4564 9.12068Z" fill="#9C9B9B"/>
</g>
<defs>
<clipPath id="clip0">
<rect width="68.7479" height="25" fill="white"/>
</clipPath>
</defs>
</svg>
